<svg xmlns="http://www.w3.org/2000/svg" width="11" height="14" viewBox="0 0 11 14">
    <path fill="#2B2F3A" fill-rule="nonzero" d="M10.5 0H2.125A.125.125 0 0 0 2 .125V1c0 .069.056.125.125.125h7.75v10.75c0 .069.056.125.125.125h.875a.125.125 0 0 0 .125-.125V.5a.5.5 0 0 0-.5-.5zm-2 2h-8a.5.5 0 0 0-.5.5v8.292a.5.5 0 0 0 .147.353l2.708 2.708a.517.517 0 0 0 .115.086v.03h.066c.055.02.112.031.172.031H8.5a.5.5 0 0 0 .5-.5v-11a.5.5 0 0 0-.5-.5zM2.969 12.378l-1.346-1.347H2.97v1.347zm4.906.497H3.969v-2.219a.625.625 0 0 0-.625-.625H1.125V3.125h6.75v9.75z"/>
</svg>
