<svg id="logo_xpg" xmlns="http://www.w3.org/2000/svg" xmlns:xlink="http://www.w3.org/1999/xlink" width="53.246" height="49" viewBox="0 0 53.246 49">
  <defs>
    <linearGradient id="linear-gradient" x1="0.11" y1="1.131" x2="0.912" y2="-0.139" gradientUnits="objectBoundingBox">
      <stop offset="0" stop-color="#d42e8b"/>
      <stop offset="0.5" stop-color="#601986"/>
      <stop offset="1" stop-color="#020b5c"/>
    </linearGradient>
    <linearGradient id="linear-gradient-2" x1="0.242" y1="0.755" x2="1.172" y2="0.118" xlink:href="#linear-gradient"/>
    <linearGradient id="linear-gradient-3" x1="0.1" y1="1.14" x2="1.328" y2="-0.572" xlink:href="#linear-gradient"/>
  </defs>
  <g id="组_8891" data-name="组 8891" transform="translate(0.823 34.421)">
    <path id="路径_5701" data-name="路径 5701" d="M550.489-142.281l4.455-4.874,2.3,4.874h3.344l-3.452-7.278,6.4-7.007H560.2L556-151.973l-2.171-4.592h-3.344l3.315,7-6.657,7.284Z" transform="translate(-547.144 156.712)" fill="#fff"/>
    <path id="路径_5702" data-name="路径 5702" d="M645.282-156.02a5.815,5.815,0,0,0-2.649-.545h-6.747l-3.2,14.284h3.171l1.242-5.541h3.576a7.558,7.558,0,0,0,2.893-.54,5.89,5.89,0,0,0,2.2-1.528,5.047,5.047,0,0,0,1.174-2.294,3.627,3.627,0,0,0-.144-2.3A3.119,3.119,0,0,0,645.282-156.02Zm-2.08,4.76a2.274,2.274,0,0,1-.817.624,2.5,2.5,0,0,1-1.051.221h-3.657l.8-3.556h3.657a1.909,1.909,0,0,1,.963.221,1.156,1.156,0,0,1,.53.629,1.671,1.671,0,0,1,.027.938A2.17,2.17,0,0,1,643.2-151.26Z" transform="translate(-617.627 156.712)" fill="#fff"/>
    <path id="路径_5703" data-name="路径 5703" d="M723.3-150.957l-.582,2.594h2.546l-.053.236a3.137,3.137,0,0,1-.649,1.346,3.071,3.071,0,0,1-1.184.87,3.985,3.985,0,0,1-1.566.3,3.494,3.494,0,0,1-1.466-.275,1.651,1.651,0,0,1-.842-.786,1.772,1.772,0,0,1-.094-1.179l.945-4.215a3.12,3.12,0,0,1,.653-1.336,3.225,3.225,0,0,1,1.2-.894,3.818,3.818,0,0,1,1.558-.314,3.3,3.3,0,0,1,1.078.172,2.1,2.1,0,0,1,.825.5,1.4,1.4,0,0,1,.4.781h3.425a4.063,4.063,0,0,0-.651-2.23,4.134,4.134,0,0,0-1.79-1.488,6.363,6.363,0,0,0-2.66-.526,8.407,8.407,0,0,0-3.366.663,6.906,6.906,0,0,0-2.566,1.872,6.412,6.412,0,0,0-1.386,2.8l-.945,4.215a4.113,4.113,0,0,0,.177,2.643,3.612,3.612,0,0,0,1.78,1.763,6.982,6.982,0,0,0,3.106.624,8.408,8.408,0,0,0,3.366-.663,6.889,6.889,0,0,0,2.567-1.876,6.444,6.444,0,0,0,1.387-2.8l.626-2.79Z" transform="translate(-686.272 157.402)" fill="#fff"/>
  </g>
  <g id="组_8893" data-name="组 8893">
    <path id="路径_5704" data-name="路径 5704" d="M585.489-321.17H571.932l-7.363-10.194-11.242,8.821H542.466L561.2-337.928l-10.535-15.029h10.17l6.662,8.8,11-8.8h14.332l-19.151,15.433Z" transform="translate(-542.466 352.957)" fill="url(#linear-gradient)"/>
    <path id="路径_5705" data-name="路径 5705" d="M598.728-315.467h5.519l-9.438-13.464,14.655-12.007h0l-16.635,9.214-7.81-10.312H579.5l9.437,13.462-15.963,13.107h0l17.97-10.312Z" transform="translate(-567.603 343.959)" fill="#fff"/>
    <path id="路径_5706" data-name="路径 5706" d="M744.819-307.031l-7.507-16.354,15.4-12.412h-4.305l-15.4,12.412,11.812,16.354Z" transform="translate(-699.468 338.817)" fill="url(#linear-gradient-2)"/>
    <g id="组_8892" data-name="组 8892" transform="translate(12.991 23.534)">
      <path id="路径_5707" data-name="路径 5707" d="M616.274-212.374l9.59-5.742-.822-1.138Z" transform="translate(-616.274 219.255)" fill="url(#linear-gradient-3)"/>
    </g>
  </g>
</svg>
